<svg xmlns="http://www.w3.org/2000/svg" xmlns:xlink="http://www.w3.org/1999/xlink" contentStyleType="text/css" data-diagram-type="CHEN_EER" height="972px" preserveAspectRatio="none" style="width:2191px;height:972px;background:#FFFFFF;" version="1.1" viewBox="0 0 2191 972" width="2191px" zoomAndPan="magnify"><?plantuml 1.2026.3beta4?><defs/><g><g><rect fill="#F1F1F1" height="36.2969" style="stroke:#181818;stroke-width:0.5;" width="106.7617" x="87.63" y="752.47"/><text fill="#000000" font-family="sans-serif" font-size="14" lengthAdjust="spacing" textLength="86.7617" x="97.63" y="775.4651">blood_group</text></g><g><ellipse cx="37.9731" cy="751.6185" fill="#F1F1F1" rx="15.0231" ry="12.6185" style="stroke:#181818;stroke-width:0.5;"/><text fill="#000000" font-family="sans-serif" font-size="14" lengthAdjust="spacing" textLength="12.7764" x="31.5849" y="757.9951">id</text></g><g><ellipse cx="37.9686" cy="788.6236" fill="#F1F1F1" rx="31.9686" ry="14.5236" style="stroke:#181818;stroke-width:0.5;"/><text fill="#000000" font-family="sans-serif" font-size="14" lengthAdjust="spacing" textLength="40.9678" x="17.4847" y="793.0951">group</text></g><g><rect fill="#F1F1F1" height="36.2969" style="stroke:#181818;stroke-width:0.5;" width="108.1494" x="86.94" y="143.47"/><text fill="#000000" font-family="sans-serif" font-size="14" lengthAdjust="spacing" textLength="88.1494" x="96.94" y="166.4651">system_user</text></g><g><ellipse cx="37.9731" cy="198.6185" fill="#F1F1F1" rx="15.0231" ry="12.6185" style="stroke:#181818;stroke-width:0.5;"/><text fill="#000000" font-family="sans-serif" font-size="14" lengthAdjust="spacing" textLength="12.7764" x="31.5849" y="204.9951">id</text></g><g><ellipse cx="37.9723" cy="235.6236" fill="#F1F1F1" rx="24.5923" ry="14.5236" style="stroke:#181818;stroke-width:0.5;"/><text fill="#000000" font-family="sans-serif" font-size="14" lengthAdjust="spacing" textLength="30.5361" x="22.7042" y="240.0951">user</text></g><g><ellipse cx="37.9742" cy="83.6236" fill="#F1F1F1" rx="23.6642" ry="14.5236" style="stroke:#181818;stroke-width:0.5;"/><text fill="#000000" font-family="sans-serif" font-size="14" lengthAdjust="spacing" textLength="29.2236" x="23.3624" y="88.0951">pwd</text></g><g><ellipse cx="37.9743" cy="122.6236" fill="#F1F1F1" rx="31.0743" ry="14.5236" style="stroke:#181818;stroke-width:0.5;"/><text fill="#000000" font-family="sans-serif" font-size="14" lengthAdjust="spacing" textLength="39.7031" x="18.1228" y="127.0951">name</text></g><g><ellipse cx="37.9676" cy="161.6236" fill="#F1F1F1" rx="21.9676" ry="14.5236" style="stroke:#181818;stroke-width:0.5;"/><text fill="#000000" font-family="sans-serif" font-size="14" lengthAdjust="spacing" textLength="26.8242" x="24.5555" y="166.0951">role</text></g><g><rect fill="#F1F1F1" height="36.2969" style="stroke:#181818;stroke-width:0.5;" width="60.6465" x="867.23" y="603.47"/><text fill="#000000" font-family="sans-serif" font-size="14" lengthAdjust="spacing" textLength="40.6465" x="877.23" y="626.4651">donor</text></g><g><ellipse cx="620.5331" cy="506.6185" fill="#F1F1F1" rx="15.0231" ry="12.6185" style="stroke:#181818;stroke-width:0.5;"/><text fill="#000000" font-family="sans-serif" font-size="14" lengthAdjust="spacing" textLength="12.7764" x="614.1449" y="512.9951">id</text></g><g><ellipse cx="620.5295" cy="543.6236" fill="#F1F1F1" rx="34.5595" ry="14.5236" style="stroke:#181818;stroke-width:0.5;"/><text fill="#000000" font-family="sans-serif" font-size="14" lengthAdjust="spacing" textLength="44.6318" x="598.2136" y="548.0951">fname</text></g><g><ellipse cx="620.5347" cy="582.6236" fill="#F1F1F1" rx="33.8247" ry="14.5236" style="stroke:#181818;stroke-width:0.5;"/><text fill="#000000" font-family="sans-serif" font-size="14" lengthAdjust="spacing" textLength="43.5928" x="598.7384" y="587.0951">lname</text></g><g><ellipse cx="620.5344" cy="621.6236" fill="#F1F1F1" rx="21.6244" ry="14.5236" style="stroke:#181818;stroke-width:0.5;"/><text fill="#000000" font-family="sans-serif" font-size="14" lengthAdjust="spacing" textLength="26.3389" x="607.365" y="626.0951">dob</text></g><g><ellipse cx="620.5266" cy="660.6236" fill="#F1F1F1" rx="20.1066" ry="14.5236" style="stroke:#181818;stroke-width:0.5;"/><text fill="#000000" font-family="sans-serif" font-size="14" lengthAdjust="spacing" textLength="24.1924" x="608.4304" y="665.0951">sex</text></g><g><ellipse cx="620.5294" cy="699.6236" fill="#F1F1F1" rx="33.9794" ry="14.5236" style="stroke:#181818;stroke-width:0.5;"/><text fill="#000000" font-family="sans-serif" font-size="14" lengthAdjust="spacing" textLength="43.8115" x="598.6237" y="704.0951">phone</text></g><g><ellipse cx="620.5317" cy="738.6236" fill="#F1F1F1" rx="29.5517" ry="14.5236" style="stroke:#181818;stroke-width:0.5;"/><text fill="#000000" font-family="sans-serif" font-size="14" lengthAdjust="spacing" textLength="37.5498" x="601.7568" y="743.0951">bg_id</text></g><g><rect fill="#F1F1F1" height="36.2969" style="stroke:#181818;stroke-width:0.5;" width="86.6299" x="854.24" y="855.47"/><text fill="#000000" font-family="sans-serif" font-size="14" lengthAdjust="spacing" textLength="66.6299" x="864.24" y="878.4651">inventory</text></g><g><ellipse cx="620.5331" cy="945.6185" fill="#F1F1F1" rx="15.0231" ry="12.6185" style="stroke:#181818;stroke-width:0.5;"/><text fill="#000000" font-family="sans-serif" font-size="14" lengthAdjust="spacing" textLength="12.7764" x="614.1449" y="951.9951">id</text></g><g><ellipse cx="620.5279" cy="834.6236" fill="#F1F1F1" rx="27.3379" ry="14.5236" style="stroke:#181818;stroke-width:0.5;"/><text fill="#000000" font-family="sans-serif" font-size="14" lengthAdjust="spacing" textLength="34.4189" x="603.3184" y="839.0951">units</text></g><g><ellipse cx="620.5329" cy="908.6236" fill="#F1F1F1" rx="21.2329" ry="14.5236" style="stroke:#181818;stroke-width:0.5;"/><text fill="#000000" font-family="sans-serif" font-size="14" lengthAdjust="spacing" textLength="25.7852" x="607.6403" y="913.0951">exp</text></g><g><rect fill="#F1F1F1" height="36.2969" style="stroke:#181818;stroke-width:0.5;" width="75.4668" x="859.82" y="340.47"/><text fill="#000000" font-family="sans-serif" font-size="14" lengthAdjust="spacing" textLength="55.4668" x="869.82" y="363.4651">hospital</text></g><g><ellipse cx="620.5331" cy="321.6185" fill="#F1F1F1" rx="15.0231" ry="12.6185" style="stroke:#181818;stroke-width:0.5;"/><text fill="#000000" font-family="sans-serif" font-size="14" lengthAdjust="spacing" textLength="12.7764" x="614.1449" y="327.9951">id</text></g><g><ellipse cx="620.5343" cy="358.6236" fill="#F1F1F1" rx="31.0743" ry="14.5236" style="stroke:#181818;stroke-width:0.5;"/><text fill="#000000" font-family="sans-serif" font-size="14" lengthAdjust="spacing" textLength="39.7031" x="600.6828" y="363.0951">name</text></g><g><ellipse cx="620.5317" cy="396.6233" fill="#F1F1F1" rx="15.7917" ry="13.2333" style="stroke:#181818;stroke-width:0.5;"/><text fill="#000000" font-family="sans-serif" font-size="14" lengthAdjust="spacing" textLength="15.4766" x="612.7934" y="402.3851">lic</text></g><g><ellipse cx="620.5344" cy="434.6236" fill="#F1F1F1" rx="25.1144" ry="14.5236" style="stroke:#181818;stroke-width:0.5;"/><text fill="#000000" font-family="sans-serif" font-size="14" lengthAdjust="spacing" textLength="31.2744" x="604.8971" y="439.0951">type</text></g><g><ellipse cx="620.5294" cy="284.6236" fill="#F1F1F1" rx="33.9794" ry="14.5236" style="stroke:#181818;stroke-width:0.5;"/><text fill="#000000" font-family="sans-serif" font-size="14" lengthAdjust="spacing" textLength="43.8115" x="598.6237" y="289.0951">phone</text></g><g><rect fill="#F1F1F1" height="36.2969" style="stroke:#181818;stroke-width:0.5;" width="81.7217" x="1738.51" y="242.47"/><text fill="#000000" font-family="sans-serif" font-size="14" lengthAdjust="spacing" textLength="61.7217" x="1748.51" y="265.4651">donation</text></g><g><ellipse cx="1665.0631" cy="184.6185" fill="#F1F1F1" rx="15.0231" ry="12.6185" style="stroke:#181818;stroke-width:0.5;"/><text fill="#000000" font-family="sans-serif" font-size="14" lengthAdjust="spacing" textLength="12.7764" x="1658.6749" y="190.9951">id</text></g><g><ellipse cx="1665.0644" cy="221.6236" fill="#F1F1F1" rx="25.1144" ry="14.5236" style="stroke:#181818;stroke-width:0.5;"/><text fill="#000000" font-family="sans-serif" font-size="14" lengthAdjust="spacing" textLength="31.2744" x="1649.4271" y="226.0951">type</text></g><g><ellipse cx="1665.0622" cy="260.6236" fill="#F1F1F1" rx="25.3222" ry="14.5236" style="stroke:#181818;stroke-width:0.5;"/><text fill="#000000" font-family="sans-serif" font-size="14" lengthAdjust="spacing" textLength="31.5684" x="1649.278" y="265.0951">date</text></g><g><ellipse cx="1665.0579" cy="299.6236" fill="#F1F1F1" rx="27.3379" ry="14.5236" style="stroke:#181818;stroke-width:0.5;"/><text fill="#000000" font-family="sans-serif" font-size="14" lengthAdjust="spacing" textLength="34.4189" x="1647.8484" y="304.0951">units</text></g><g><rect fill="#F1F1F1" height="36.2969" style="stroke:#181818;stroke-width:0.5;" width="73.5254" x="1742.61" y="493.47"/><text fill="#000000" font-family="sans-serif" font-size="14" lengthAdjust="spacing" textLength="53.5254" x="1752.61" y="516.4651">request</text></g><g><ellipse cx="1665.0631" cy="511.6185" fill="#F1F1F1" rx="15.0231" ry="12.6185" style="stroke:#181818;stroke-width:0.5;"/><text fill="#000000" font-family="sans-serif" font-size="14" lengthAdjust="spacing" textLength="12.7764" x="1658.6749" y="517.9951">id</text></g><g><ellipse cx="1665.0617" cy="548.6236" fill="#F1F1F1" rx="19.2317" ry="14.5236" style="stroke:#181818;stroke-width:0.5;"/><text fill="#000000" font-family="sans-serif" font-size="14" lengthAdjust="spacing" textLength="22.9551" x="1653.5842" y="553.0951">pat</text></g><g><ellipse cx="1665.0645" cy="587.6236" fill="#F1F1F1" rx="24.3845" ry="14.5236" style="stroke:#181818;stroke-width:0.5;"/><text fill="#000000" font-family="sans-serif" font-size="14" lengthAdjust="spacing" textLength="30.2422" x="1649.9434" y="592.0951">diag</text></g><g><ellipse cx="1665.0644" cy="626.6236" fill="#F1F1F1" rx="25.1144" ry="14.5236" style="stroke:#181818;stroke-width:0.5;"/><text fill="#000000" font-family="sans-serif" font-size="14" lengthAdjust="spacing" textLength="31.2744" x="1649.4271" y="631.0951">type</text></g><g><ellipse cx="1665.0579" cy="435.6236" fill="#F1F1F1" rx="27.3379" ry="14.5236" style="stroke:#181818;stroke-width:0.5;"/><text fill="#000000" font-family="sans-serif" font-size="14" lengthAdjust="spacing" textLength="34.4189" x="1647.8484" y="440.0951">units</text></g><g><ellipse cx="1665.0581" cy="474.6236" fill="#F1F1F1" rx="19.6281" ry="14.5236" style="stroke:#181818;stroke-width:0.5;"/><text fill="#000000" font-family="sans-serif" font-size="14" lengthAdjust="spacing" textLength="23.5156" x="1653.3002" y="479.0951">urg</text></g><g><rect fill="#F1F1F1" height="36.2969" style="stroke:#181818;stroke-width:0.5;" width="54.2891" x="2123.24" y="92.47"/><text fill="#000000" font-family="sans-serif" font-size="14" lengthAdjust="spacing" textLength="34.2891" x="2133.24" y="115.4651">fulfill</text></g><g><ellipse cx="2077.3431" cy="18.6185" fill="#F1F1F1" rx="15.0231" ry="12.6185" style="stroke:#181818;stroke-width:0.5;"/><text fill="#000000" font-family="sans-serif" font-size="14" lengthAdjust="spacing" textLength="12.7764" x="2070.9549" y="24.9951">id</text></g><g><ellipse cx="2077.3379" cy="55.6236" fill="#F1F1F1" rx="27.3379" ry="14.5236" style="stroke:#181818;stroke-width:0.5;"/><text fill="#000000" font-family="sans-serif" font-size="14" lengthAdjust="spacing" textLength="34.4189" x="2060.1284" y="60.0951">units</text></g><g><ellipse cx="2077.3392" cy="94.6236" fill="#F1F1F1" rx="28.8992" ry="14.5236" style="stroke:#181818;stroke-width:0.5;"/><text fill="#000000" font-family="sans-serif" font-size="14" lengthAdjust="spacing" textLength="36.627" x="2059.0257" y="99.0951">temp</text></g><g><rect fill="#F1F1F1" height="36.2969" style="stroke:#181818;stroke-width:0.5;" width="109.7832" x="1724.48" y="741.47"/><text fill="#000000" font-family="sans-serif" font-size="14" lengthAdjust="spacing" textLength="89.7832" x="1734.48" y="764.4651">appointment</text></g><g><ellipse cx="1665.0631" cy="759.6185" fill="#F1F1F1" rx="15.0231" ry="12.6185" style="stroke:#181818;stroke-width:0.5;"/><text fill="#000000" font-family="sans-serif" font-size="14" lengthAdjust="spacing" textLength="12.7764" x="1658.6749" y="765.9951">id</text></g><g><ellipse cx="1665.0622" cy="796.6236" fill="#F1F1F1" rx="25.3222" ry="14.5236" style="stroke:#181818;stroke-width:0.5;"/><text fill="#000000" font-family="sans-serif" font-size="14" lengthAdjust="spacing" textLength="31.5684" x="1649.278" y="801.0951">date</text></g><g><ellipse cx="1665.0557" cy="835.6236" fill="#F1F1F1" rx="25.3657" ry="14.5236" style="stroke:#181818;stroke-width:0.5;"/><text fill="#000000" font-family="sans-serif" font-size="14" lengthAdjust="spacing" textLength="31.6299" x="1649.2408" y="840.0951">time</text></g><g><ellipse cx="1665.0587" cy="722.6236" fill="#F1F1F1" rx="33.4187" ry="14.5236" style="stroke:#181818;stroke-width:0.5;"/><text fill="#000000" font-family="sans-serif" font-size="14" lengthAdjust="spacing" textLength="43.0186" x="1643.5494" y="727.0951">status</text></g><g><polygon fill="#F1F1F1" points="260.63,203.6211,328.6922,169.59,396.7544,203.6211,328.6922,237.6522" style="stroke:#181818;stroke-width:0.5;"/><text fill="#000000" font-family="sans-serif" font-size="14" lengthAdjust="spacing" textLength="81.1699" x="288.1072" y="208.4678">Uses_Portal</text></g><g><polygon fill="#F1F1F1" points="421.29,153.62,499.63,114.45,577.97,153.62,499.63,192.79" style="stroke:#181818;stroke-width:0.5;"/><text fill="#000000" font-family="sans-serif" font-size="14" lengthAdjust="spacing" textLength="101.7256" x="448.7672" y="158.4667">Collects_Blood</text></g><g><polygon fill="#F1F1F1" points="663.09,98.6172,754.6644,52.83,846.2388,98.6172,754.6644,144.4044" style="stroke:#181818;stroke-width:0.5;"/><text fill="#000000" font-family="sans-serif" font-size="14" lengthAdjust="spacing" textLength="128.1943" x="690.5672" y="103.4639">Approves_Release</text></g><g><polygon fill="#F1F1F1" points="244.09,737.6209,328.6917,695.32,413.2935,737.6209,328.6917,779.9217" style="stroke:#181818;stroke-width:0.5;"/><text fill="#000000" font-family="sans-serif" font-size="14" lengthAdjust="spacing" textLength="114.249" x="271.5672" y="742.4675">Has_Blood_Type</text></g><g><polygon fill="#F1F1F1" points="261.15,865.6179,328.6858,831.85,396.2216,865.6179,328.6858,899.3858" style="stroke:#181818;stroke-width:0.5;"/><text fill="#000000" font-family="sans-serif" font-size="14" lengthAdjust="spacing" textLength="80.1172" x="288.6272" y="870.4646">Stocked_As</text></g><g><polygon fill="#F1F1F1" points="1110.69,290.6214,1182.8127,254.56,1254.9354,290.6214,1182.8127,326.6827" style="stroke:#181818;stroke-width:0.5;"/><text fill="#000000" font-family="sans-serif" font-size="14" lengthAdjust="spacing" textLength="89.291" x="1138.1672" y="295.468">Collected_As</text></g><g><polygon fill="#F1F1F1" points="948.87,747.6256,1025.7813,709.17,1102.6926,747.6256,1025.7813,786.0813" style="stroke:#181818;stroke-width:0.5;"/><text fill="#000000" font-family="sans-serif" font-size="14" lengthAdjust="spacing" textLength="98.8682" x="976.3472" y="752.4723">Requested_As</text></g><g><polygon fill="#F1F1F1" points="1283.61,501.6251,1363.4402,461.71,1443.2705,501.6251,1363.4402,541.5402" style="stroke:#181818;stroke-width:0.5;"/><text fill="#000000" font-family="sans-serif" font-size="14" lengthAdjust="spacing" textLength="104.7061" x="1311.0872" y="506.4718">Donates_Blood</text></g><g><polygon fill="#F1F1F1" points="1271.94,621.6247,1363.4494,575.87,1454.9589,621.6247,1363.4494,667.3794" style="stroke:#181818;stroke-width:0.5;"/><text fill="#000000" font-family="sans-serif" font-size="14" lengthAdjust="spacing" textLength="128.0645" x="1299.4172" y="626.4714">Sets_Appointment</text></g><g><polygon fill="#F1F1F1" points="1281.02,387.6222,1363.4445,346.41,1445.869,387.6222,1363.4445,428.8345" style="stroke:#181818;stroke-width:0.5;"/><text fill="#000000" font-family="sans-serif" font-size="14" lengthAdjust="spacing" textLength="109.8945" x="1308.4972" y="392.4689">Raises_Request</text></g><g><polygon fill="#F1F1F1" points="1878.26,264.625,1954.85,226.33,2031.44,264.625,1954.85,302.92" style="stroke:#181818;stroke-width:0.5;"/><text fill="#000000" font-family="sans-serif" font-size="14" lengthAdjust="spacing" textLength="98.2256" x="1905.7372" y="269.4717">Is_Fulfilled_By</text></g><g><polygon fill="#F1F1F1" points="1462.95,869.6215,1543.2929,829.45,1623.6359,869.6215,1543.2929,909.7929" style="stroke:#181818;stroke-width:0.5;"/><text fill="#000000" font-family="sans-serif" font-size="14" lengthAdjust="spacing" textLength="105.7314" x="1490.4272" y="874.4681">Supplies_Blood</text></g><!--link blood_group/id to blood_group--><g class="link" data-entity-1="ent0003" data-entity-2="ent0002" data-link-type="association" data-source-line="9" id="lnk4"><path d="M53.02,754.26 C62.13,755.98 74.63,758.33 87.31,760.71" fill="none" id="blood_group/id-blood_group" style="stroke:#181818;stroke-width:1;"/></g><!--link blood_group/group to blood_group--><g class="link" data-entity-1="ent0005" data-entity-2="ent0002" data-link-type="association" data-source-line="10" id="lnk6"><path d="M68.19,783.42 C74.26,782.34 80.82,781.17 87.43,779.99" fill="none" id="blood_group/group-blood_group" style="stroke:#181818;stroke-width:1;"/></g><!--link system_user/id to system_user--><g class="link" data-entity-1="ent0008" data-entity-2="ent0007" data-link-type="association" data-source-line="14" id="lnk9"><path d="M52.18,193.78 C61.81,190.26 75.52,185.24 89.26,180.21" fill="none" id="system_user/id-system_user" style="stroke:#181818;stroke-width:1;"/></g><!--link system_user/user to system_user--><g class="link" data-entity-1="ent0010" data-entity-2="ent0007" data-link-type="association" data-source-line="15" id="lnk11"><path d="M56.23,225.51 C60.76,222.73 65.59,219.65 69.94,216.62 C86.44,205.14 104.25,191.14 117.79,180.13" fill="none" id="system_user/user-system_user" style="stroke:#181818;stroke-width:1;"/></g><!--link system_user/pwd to system_user--><g class="link" data-entity-1="ent0012" data-entity-2="ent0007" data-link-type="association" data-source-line="16" id="lnk13"><path d="M55.98,93.43 C60.6,96.26 65.54,99.45 69.94,102.62 C87.48,115.28 106.16,131.14 119.82,143.23" fill="none" id="system_user/pwd-system_user" style="stroke:#181818;stroke-width:1;"/></g><!--link system_user/name to system_user--><g class="link" data-entity-1="ent0014" data-entity-2="ent0007" data-link-type="association" data-source-line="17" id="lnk15"><path d="M62.66,131.77 C71.41,135.14 81.67,139.1 91.81,143.02" fill="none" id="system_user/name-system_user" style="stroke:#181818;stroke-width:1;"/></g><!--link system_user/role to system_user--><g class="link" data-entity-1="ent0016" data-entity-2="ent0007" data-link-type="association" data-source-line="18" id="lnk17"><path d="M60.4,161.62 C68.16,161.62 77.31,161.62 86.6,161.62" fill="none" id="system_user/role-system_user" style="stroke:#181818;stroke-width:1;"/></g><!--link donor/id to donor--><g class="link" data-entity-1="ent0019" data-entity-2="ent0018" data-link-type="association" data-source-line="22" id="lnk20"><path d="M635.82,507.32 C673.16,509.72 775.66,520.12 846.24,563.62 C862.24,573.48 875.88,590.08 884.9,602.99" fill="none" id="donor/id-donor" style="stroke:#181818;stroke-width:1;"/></g><!--link donor/fname to donor--><g class="link" data-entity-1="ent0021" data-entity-2="ent0018" data-link-type="association" data-source-line="23" id="lnk22"><path d="M654.01,547.84 C698.47,554.28 780.3,568.55 846.24,593.62 C853.15,596.25 860.27,599.7 866.9,603.27" fill="none" id="donor/fname-donor" style="stroke:#181818;stroke-width:1;"/></g><!--link donor/lname to donor--><g class="link" data-entity-1="ent0023" data-entity-2="ent0018" data-link-type="association" data-source-line="24" id="lnk24"><path d="M653.19,586.78 C696.72,592.55 777.48,603.41 846.24,613.62 C852.89,614.61 860.02,615.71 866.77,616.78" fill="none" id="donor/lname-donor" style="stroke:#181818;stroke-width:1;"/></g><!--link donor/dob to donor--><g class="link" data-entity-1="ent0025" data-entity-2="ent0018" data-link-type="association" data-source-line="25" id="lnk26"><path d="M642.65,621.62 C691.21,621.62 810.86,621.62 866.81,621.62" fill="none" id="donor/dob-donor" style="stroke:#181818;stroke-width:1;"/></g><!--link donor/sex to donor--><g class="link" data-entity-1="ent0027" data-entity-2="ent0018" data-link-type="association" data-source-line="26" id="lnk28"><path d="M640.43,657.94 C687.52,651.26 810.33,633.85 867.05,625.81" fill="none" id="donor/sex-donor" style="stroke:#181818;stroke-width:1;"/></g><!--link donor/phone to donor--><g class="link" data-entity-1="ent0029" data-entity-2="ent0018" data-link-type="association" data-source-line="27" id="lnk30"><path d="M654.39,697.63 C699.29,693.95 781.62,683.82 846.24,656.62 C856.05,652.49 865.87,646.25 874.2,640.17" fill="none" id="donor/phone-donor" style="stroke:#181818;stroke-width:1;"/></g><!--link donor/bg_id to donor--><g class="link" data-entity-1="ent0031" data-entity-2="ent0018" data-link-type="association" data-source-line="28" id="lnk32"><path d="M650.07,740.63 C695.5,742.41 785.33,739.95 846.24,699.62 C867.87,685.3 882.19,658.14 889.85,639.96" fill="none" id="donor/bg_id-donor" style="stroke:#181818;stroke-width:1;"/></g><!--link inventory/id to inventory--><g class="link" data-entity-1="ent0034" data-entity-2="ent0033" data-link-type="association" data-source-line="32" id="lnk35"><path d="M635.98,944.99 C672.46,942.98 770.73,935.02 846.24,905.62 C855.02,902.2 863.91,897.17 871.73,892.11" fill="none" id="inventory/id-inventory" style="stroke:#181818;stroke-width:1;"/></g><!--link inventory/units to inventory--><g class="link" data-entity-1="ent0036" data-entity-2="ent0033" data-link-type="association" data-source-line="33" id="lnk37"><path d="M647.51,838.03 C689.37,843.56 774.37,854.95 846.24,865.62 C848.69,865.99 851.2,866.37 853.74,866.75" fill="none" id="inventory/units-inventory" style="stroke:#181818;stroke-width:1;"/></g><!--link inventory/exp to inventory--><g class="link" data-entity-1="ent0038" data-entity-2="ent0033" data-link-type="association" data-source-line="34" id="lnk39"><path d="M642.01,906.42 C681.55,902.13 771.13,892.1 846.24,881.62 C848.69,881.28 851.21,880.92 853.75,880.54" fill="none" id="inventory/exp-inventory" style="stroke:#181818;stroke-width:1;"/></g><!--link hospital/id to hospital--><g class="link" data-entity-1="ent0041" data-entity-2="ent0040" data-link-type="association" data-source-line="38" id="lnk42"><path d="M635.75,323.31 C671.28,327.56 766.81,339.18 846.24,350.62 C850.53,351.24 855.02,351.91 859.48,352.6" fill="none" id="hospital/id-hospital" style="stroke:#181818;stroke-width:1;"/></g><!--link hospital/name to hospital--><g class="link" data-entity-1="ent0043" data-entity-2="ent0040" data-link-type="association" data-source-line="39" id="lnk44"><path d="M652.01,358.62 C702.78,358.62 804.48,358.62 859.37,358.62" fill="none" id="hospital/name-hospital" style="stroke:#181818;stroke-width:1;"/></g><!--link hospital/lic to hospital--><g class="link" data-entity-1="ent0045" data-entity-2="ent0040" data-link-type="association" data-source-line="40" id="lnk46"><path d="M636.32,394.58 C678.16,388.8 798.31,372.2 859.61,363.73" fill="none" id="hospital/lic-hospital" style="stroke:#181818;stroke-width:1;"/></g><!--link hospital/type to hospital--><g class="link" data-entity-1="ent0047" data-entity-2="ent0040" data-link-type="association" data-source-line="41" id="lnk48"><path d="M645.72,433.33 C687.91,430.37 777.03,421.03 846.24,392.62 C855.7,388.74 865.21,382.92 873.38,377.18" fill="none" id="hospital/type-hospital" style="stroke:#181818;stroke-width:1;"/></g><!--link hospital/phone to hospital--><g class="link" data-entity-1="ent0049" data-entity-2="ent0040" data-link-type="association" data-source-line="42" id="lnk50"><path d="M654.01,288.11 C698.49,293.59 780.33,306.2 846.24,330.62 C853.08,333.16 860.11,336.52 866.67,340.04" fill="none" id="hospital/phone-hospital" style="stroke:#181818;stroke-width:1;"/></g><!--link donation/id to donation--><g class="link" data-entity-1="ent0052" data-entity-2="ent0051" data-link-type="association" data-source-line="46" id="lnk53"><path d="M1678.62,190.65 C1684.74,193.72 1692.12,197.64 1698.48,201.62 C1718.35,214.07 1739.66,229.94 1755.26,242.09" fill="none" id="donation/id-donation" style="stroke:#181818;stroke-width:1;"/></g><!--link donation/type to donation--><g class="link" data-entity-1="ent0054" data-entity-2="ent0051" data-link-type="association" data-source-line="47" id="lnk55"><path d="M1687.18,228.96 C1701.54,233.94 1720.99,240.7 1738.24,246.69" fill="none" id="donation/type-donation" style="stroke:#181818;stroke-width:1;"/></g><!--link donation/date to donation--><g class="link" data-entity-1="ent0056" data-entity-2="ent0051" data-link-type="association" data-source-line="48" id="lnk57"><path d="M1690.71,260.62 C1704.65,260.62 1722.43,260.62 1738.33,260.62" fill="none" id="donation/date-donation" style="stroke:#181818;stroke-width:1;"/></g><!--link donation/units to donation--><g class="link" data-entity-1="ent0058" data-entity-2="ent0051" data-link-type="association" data-source-line="49" id="lnk59"><path d="M1688.52,291.82 C1702.73,286.89 1721.51,280.37 1738.22,274.56" fill="none" id="donation/units-donation" style="stroke:#181818;stroke-width:1;"/></g><!--link request/id to request--><g class="link" data-entity-1="ent0061" data-entity-2="ent0060" data-link-type="association" data-source-line="53" id="lnk62"><path d="M1680.28,511.62 C1695.75,511.62 1721.07,511.62 1742.11,511.62" fill="none" id="request/id-request" style="stroke:#181818;stroke-width:1;"/></g><!--link request/pat to request--><g class="link" data-entity-1="ent0063" data-entity-2="ent0060" data-link-type="association" data-source-line="54" id="lnk64"><path d="M1683.12,543 C1698.83,537.83 1722.64,529.98 1742.52,523.43" fill="none" id="request/pat-request" style="stroke:#181818;stroke-width:1;"/></g><!--link request/diag to request--><g class="link" data-entity-1="ent0065" data-entity-2="ent0060" data-link-type="association" data-source-line="55" id="lnk66"><path d="M1683.39,577.85 C1688.32,574.96 1693.66,571.74 1698.48,568.62 C1717.35,556.39 1738,541.62 1753.58,530.18" fill="none" id="request/diag-request" style="stroke:#181818;stroke-width:1;"/></g><!--link request/type to request--><g class="link" data-entity-1="ent0067" data-entity-2="ent0060" data-link-type="association" data-source-line="56" id="lnk68"><path d="M1684.64,617.22 C1689.37,614.43 1694.3,611.17 1698.48,607.62 C1725.93,584.34 1751.37,550.89 1765.87,530.24" fill="none" id="request/type-request" style="stroke:#181818;stroke-width:1;"/></g><!--link request/units to request--><g class="link" data-entity-1="ent0069" data-entity-2="ent0060" data-link-type="association" data-source-line="57" id="lnk70"><path d="M1684.75,446.19 C1689.29,448.86 1694.1,451.78 1698.48,454.62 C1717.35,466.85 1738,481.62 1753.58,493.06" fill="none" id="request/units-request" style="stroke:#181818;stroke-width:1;"/></g><!--link request/urg to request--><g class="link" data-entity-1="ent0071" data-entity-2="ent0060" data-link-type="association" data-source-line="58" id="lnk72"><path d="M1683.61,480.4 C1699.28,485.57 1722.72,493.29 1742.37,499.76" fill="none" id="request/urg-request" style="stroke:#181818;stroke-width:1;"/></g><!--link fulfill/id to fulfill--><g class="link" data-entity-1="ent0074" data-entity-2="ent0073" data-link-type="association" data-source-line="62" id="lnk75"><path d="M2090.96,24.54 C2096.12,27.39 2101.88,31.15 2106.24,35.62 C2122.39,52.18 2134.72,75.96 2141.99,92.28" fill="none" id="fulfill/id-fulfill" style="stroke:#181818;stroke-width:1;"/></g><!--link fulfill/units to fulfill--><g class="link" data-entity-1="ent0076" data-entity-2="ent0073" data-link-type="association" data-source-line="63" id="lnk77"><path d="M2095.35,66.81 C2098.99,69.32 2102.78,72.01 2106.24,74.62 C2113.56,80.15 2121.32,86.47 2128.21,92.26" fill="none" id="fulfill/units-fulfill" style="stroke:#181818;stroke-width:1;"/></g><!--link fulfill/temp to fulfill--><g class="link" data-entity-1="ent0078" data-entity-2="ent0073" data-link-type="association" data-source-line="64" id="lnk79"><path d="M2104.39,100.49 C2110.41,101.84 2116.82,103.29 2122.86,104.65" fill="none" id="fulfill/temp-fulfill" style="stroke:#181818;stroke-width:1;"/></g><!--link appointment/id to appointment--><g class="link" data-entity-1="ent0081" data-entity-2="ent0080" data-link-type="association" data-source-line="68" id="lnk82"><path d="M1680.28,759.62 C1691.5,759.62 1707.9,759.62 1724.09,759.62" fill="none" id="appointment/id-appointment" style="stroke:#181818;stroke-width:1;"/></g><!--link appointment/date to appointment--><g class="link" data-entity-1="ent0083" data-entity-2="ent0080" data-link-type="association" data-source-line="69" id="lnk84"><path d="M1687.71,789.49 C1698.17,786.04 1711.23,781.74 1724.15,777.48" fill="none" id="appointment/date-appointment" style="stroke:#181818;stroke-width:1;"/></g><!--link appointment/time to appointment--><g class="link" data-entity-1="ent0085" data-entity-2="ent0080" data-link-type="association" data-source-line="70" id="lnk86"><path d="M1684.07,825.45 C1688.81,822.67 1693.88,819.6 1698.48,816.62 C1717.35,804.39 1738,789.62 1753.58,778.18" fill="none" id="appointment/time-appointment" style="stroke:#181818;stroke-width:1;"/></g><!--link appointment/status to appointment--><g class="link" data-entity-1="ent0087" data-entity-2="ent0080" data-link-type="association" data-source-line="71" id="lnk88"><path d="M1692.39,731.3 C1701.99,734.46 1713.22,738.16 1724.34,741.82" fill="none" id="appointment/status-appointment" style="stroke:#181818;stroke-width:1;"/></g><!--link system_user to Uses_Portal--><g class="link" data-entity-1="ent0007" data-entity-2="ent0089" data-link-type="association" data-source-line="110" id="lnk101"><path d="M164.79,180.07 C177.81,189.41 194.92,199.77 212.09,204.62 C231.5,210.1 253.49,211.13 273.03,210.35" fill="none" id="system_user-Uses_Portal" style="stroke:#181818;stroke-width:1;"/><text fill="#000000" font-family="sans-serif" font-size="11" lengthAdjust="spacing" textLength="6.9985" x="213.09" y="201.8304">1</text></g><!--link system_user to Uses_Portal--><g class="link" data-entity-1="ent0007" data-entity-2="ent0089" data-link-type="association" data-source-line="112" id="lnk103"><path d="M195.22,173.66 C222.22,179.77 254.74,187.12 280.79,193.01" fill="none" id="system_user-Uses_Portal-1" style="stroke:#181818;stroke-width:1;"/><text fill="#000000" font-family="sans-serif" font-size="11" lengthAdjust="spacing" textLength="6.9985" x="213.09" y="174.8304">1</text></g><!--link Uses_Portal to donor--><g class="link" data-entity-1="ent0089" data-entity-2="ent0018" data-link-type="association" data-source-line="111" id="lnk102"><path d="M346.5,229.04 C383.19,282.38 476.03,406.23 585.97,468.62 C637.64,497.94 798.96,493.66 846.24,529.62 C870.58,548.14 884.64,581.97 891.43,603.05" fill="none" id="Uses_Portal-donor" style="stroke:#181818;stroke-width:1;"/><text fill="#000000" font-family="sans-serif" font-size="11" lengthAdjust="spacing" textLength="6.9985" x="617.53" y="465.8304">1</text></g><!--link Uses_Portal to hospital--><g class="link" data-entity-1="ent0089" data-entity-2="ent0040" data-link-type="association" data-source-line="113" id="lnk104"><path d="M395.05,202.27 C498.24,203.03 701.98,216.49 846.24,302.62 C861.84,311.94 875.33,327.64 884.4,340.06" fill="none" id="Uses_Portal-hospital" style="stroke:#181818;stroke-width:1;"/><text fill="#000000" font-family="sans-serif" font-size="11" lengthAdjust="spacing" textLength="6.9985" x="617.53" y="215.8304">1</text></g><!--link system_user to Collects_Blood--><g class="link" data-entity-1="ent0007" data-entity-2="ent0090" data-link-type="association" data-source-line="115" id="lnk105"><path d="M195.4,160.42 C256.02,159.06 355.36,156.84 423.72,155.3" fill="none" id="system_user-Collects_Blood" style="stroke:#181818;stroke-width:1;"/><text fill="#000000" font-family="sans-serif" font-size="11" lengthAdjust="spacing" textLength="6.9985" x="213.09" y="157.8304">1</text></g><!--link Collects_Blood to donation--><g class="link" data-entity-1="ent0090" data-entity-2="ent0051" data-link-type="association" data-source-line="116" id="lnk106"><path d="M577.03,154.54 C627.23,155.07 694.36,155.62 753.66,155.62 C753.66,155.62 753.66,155.62 1666.06,155.62 C1716.24,155.62 1753.29,212.25 1769.43,242.33" fill="none" id="Collects_Blood-donation" style="stroke:#181818;stroke-width:1;"/><text fill="#000000" font-family="sans-serif" font-size="11" lengthAdjust="spacing" textLength="8.2285" x="1178.81" y="152.8304">N</text></g><!--link system_user to Approves_Release--><g class="link" data-entity-1="ent0007" data-entity-2="ent0091" data-link-type="association" data-source-line="118" id="lnk107"><path d="M153.51,142.99 C166.16,125.05 188.31,100.62 215.09,100.62 C215.09,100.62 215.09,100.62 500.63,100.62 C554.88,100.62 615.68,100.16 664.08,99.67" fill="none" id="system_user-Approves_Release" style="stroke:#181818;stroke-width:1;"/><text fill="#000000" font-family="sans-serif" font-size="11" lengthAdjust="spacing" textLength="6.9985" x="229.09" y="97.8304">1</text></g><!--link Approves_Release to fulfill--><g class="link" data-entity-1="ent0091" data-entity-2="ent0073" data-link-type="association" data-source-line="119" id="lnk108"><path d="M825.45,109.49 C879.67,116.99 956.81,125.62 1024.78,125.62 C1024.78,125.62 1024.78,125.62 2078.34,125.62 C2093.34,125.62 2109.75,122.38 2123.01,118.91" fill="none" id="Approves_Release-fulfill" style="stroke:#181818;stroke-width:1;"/><text fill="#000000" font-family="sans-serif" font-size="11" lengthAdjust="spacing" textLength="8.2285" x="1707.48" y="122.8304">N</text></g><!--link blood_group to Has_Blood_Type--><g class="link" data-entity-1="ent0002" data-entity-2="ent0092" data-link-type="association" data-source-line="121" id="lnk109"><path d="M194.72,761.25 C216.7,757.35 242.4,752.78 265.31,748.71" fill="none" id="blood_group-Has_Blood_Type" style="stroke:#181818;stroke-width:1;"/><text fill="#000000" font-family="sans-serif" font-size="11" lengthAdjust="spacing" textLength="6.9985" x="213.09" y="754.8304">1</text></g><!--link Has_Blood_Type to donor--><g class="link" data-entity-1="ent0092" data-entity-2="ent0018" data-link-type="association" data-source-line="122" id="lnk110"><path d="M392.37,748.6 C444.11,757.08 519.55,768.11 585.97,772.62 C702.09,780.51 754.66,815.45 846.24,743.62 C879.05,717.89 890.64,667.08 894.6,639.86" fill="none" id="Has_Blood_Type-donor" style="stroke:#181818;stroke-width:1;"/><text fill="#000000" font-family="sans-serif" font-size="11" lengthAdjust="spacing" textLength="8.2285" x="616.53" y="769.8304">N</text></g><!--link blood_group to Stocked_As--><g class="link" data-entity-1="ent0002" data-entity-2="ent0093" data-link-type="association" data-source-line="124" id="lnk111"><path d="M161.89,789.17 C175.27,800.88 193.76,815.62 212.09,825.62 C234.46,837.82 261.26,847.38 283.42,854.08" fill="none" id="blood_group-Stocked_As" style="stroke:#181818;stroke-width:1;"/><text fill="#000000" font-family="sans-serif" font-size="11" lengthAdjust="spacing" textLength="6.9985" x="213.09" y="822.8304">1</text></g><!--link Stocked_As to inventory--><g class="link" data-entity-1="ent0093" data-entity-2="ent0033" data-link-type="association" data-source-line="125" id="lnk112"><path d="M395.27,866.55 C512.72,868.2 755.84,871.64 854.04,873.02" fill="none" id="Stocked_As-inventory" style="stroke:#181818;stroke-width:1;"/><text fill="#000000" font-family="sans-serif" font-size="11" lengthAdjust="spacing" textLength="8.2285" x="616.53" y="865.8304">N</text></g><!--link blood_group to Collected_As--><g class="link" data-entity-1="ent0002" data-entity-2="ent0094" data-link-type="association" data-source-line="127" id="lnk113"><path d="M142.63,752.22 C145.97,660.12 163.64,253.62 215.09,253.62 C215.09,253.62 215.09,253.62 898.55,253.62 C980.51,253.62 1074.69,269.04 1131.16,279.97" fill="none" id="blood_group-Collected_As" style="stroke:#181818;stroke-width:1;"/><text fill="#000000" font-family="sans-serif" font-size="11" lengthAdjust="spacing" textLength="6.9985" x="496.63" y="250.8304">1</text></g><!--link Collected_As to donation--><g class="link" data-entity-1="ent0094" data-entity-2="ent0051" data-link-type="association" data-source-line="128" id="lnk114"><path d="M1239.44,298.86 C1354.45,315.07 1614.64,347.22 1698.48,319.62 C1722.72,311.64 1745.63,293.17 1760.65,279" fill="none" id="Collected_As-donation" style="stroke:#181818;stroke-width:1;"/><text fill="#000000" font-family="sans-serif" font-size="11" lengthAdjust="spacing" textLength="8.2285" x="1539.3" y="321.8304">N</text></g><!--link blood_group to Requested_As--><g class="link" data-entity-1="ent0002" data-entity-2="ent0095" data-link-type="association" data-source-line="130" id="lnk115"><path d="M168.84,789.24 C182.14,796.73 198.8,803.62 215.09,803.62 C215.09,803.62 215.09,803.62 755.66,803.62 C835.6,803.62 926.14,779.65 979.19,763.07" fill="none" id="blood_group-Requested_As" style="stroke:#181818;stroke-width:1;"/><text fill="#000000" font-family="sans-serif" font-size="11" lengthAdjust="spacing" textLength="6.9985" x="325.69" y="800.8304">1</text></g><!--link Requested_As to request--><g class="link" data-entity-1="ent0095" data-entity-2="ent0060" data-link-type="association" data-source-line="131" id="lnk116"><path d="M1097.68,744.59 C1260.35,737.09 1650.17,715.73 1698.48,681.62 C1750.29,645.04 1769.49,565.91 1775.72,530.01" fill="none" id="Requested_As-request" style="stroke:#181818;stroke-width:1;"/><text fill="#000000" font-family="sans-serif" font-size="11" lengthAdjust="spacing" textLength="8.2285" x="1359.45" y="719.8304">N</text></g><!--link donor to Donates_Blood--><g class="link" data-entity-1="ent0018" data-entity-2="ent0096" data-link-type="association" data-source-line="133" id="lnk117"><path d="M928.28,613.93 C1005.27,594.02 1211.96,540.55 1309.77,515.25" fill="none" id="donor-Donates_Blood" style="stroke:#181818;stroke-width:1;"/><text fill="#000000" font-family="sans-serif" font-size="11" lengthAdjust="spacing" textLength="6.9985" x="1179.81" y="527.8304">1</text></g><!--link Donates_Blood to donation--><g class="link" data-entity-1="ent0096" data-entity-2="ent0051" data-link-type="association" data-source-line="134" id="lnk118"><path d="M1410.88,485.26 C1463.88,466.92 1553.36,436.96 1631.64,415.62 C1661.01,407.62 1674,418.72 1698.48,400.62 C1740.56,369.52 1763.79,309.15 1773.26,278.87" fill="none" id="Donates_Blood-donation" style="stroke:#181818;stroke-width:1;"/><text fill="#000000" font-family="sans-serif" font-size="11" lengthAdjust="spacing" textLength="8.2285" x="1661.06" y="397.8304">N</text></g><!--link donor to Sets_Appointment--><g class="link" data-entity-1="ent0018" data-entity-2="ent0097" data-link-type="association" data-source-line="136" id="lnk119"><path d="M928.28,621.62 C996.17,621.62 1164.92,621.62 1270.92,621.62" fill="none" id="donor-Sets_Appointment" style="stroke:#181818;stroke-width:1;"/><text fill="#000000" font-family="sans-serif" font-size="11" lengthAdjust="spacing" textLength="6.9985" x="1179.81" y="618.8304">1</text></g><!--link Sets_Appointment to appointment--><g class="link" data-entity-1="ent0097" data-entity-2="ent0080" data-link-type="association" data-source-line="137" id="lnk120"><path d="M1437.11,631.06 C1506.6,641.96 1613.14,663.61 1698.48,702.62 C1720.17,712.54 1742.03,728.66 1757.39,741.23" fill="none" id="Sets_Appointment-appointment" style="stroke:#181818;stroke-width:1;"/><text fill="#000000" font-family="sans-serif" font-size="11" lengthAdjust="spacing" textLength="8.2285" x="1661.06" y="675.8304">N</text></g><!--link hospital to Raises_Request--><g class="link" data-entity-1="ent0040" data-entity-2="ent0098" data-link-type="association" data-source-line="139" id="lnk121"><path d="M935.73,360.95 C1012.38,365.74 1189.17,376.79 1289.48,383.06" fill="none" id="hospital-Raises_Request" style="stroke:#181818;stroke-width:1;"/><text fill="#000000" font-family="sans-serif" font-size="11" lengthAdjust="spacing" textLength="6.9985" x="1179.81" y="369.8304">1</text></g><!--link Raises_Request to request--><g class="link" data-entity-1="ent0098" data-entity-2="ent0060" data-link-type="association" data-source-line="140" id="lnk122"><path d="M1416.33,372.32 C1485.46,355.08 1609.39,335.41 1698.48,384.62 C1740.66,407.92 1763.6,463.87 1773.08,493.11" fill="none" id="Raises_Request-request" style="stroke:#181818;stroke-width:1;"/><text fill="#000000" font-family="sans-serif" font-size="11" lengthAdjust="spacing" textLength="8.2285" x="1661.06" y="358.8304">N</text></g><!--link request to Is_Fulfilled_By--><g class="link" data-entity-1="ent0060" data-entity-2="ent0099" data-link-type="association" data-source-line="142" id="lnk123"><path d="M1793.41,493.06 C1823.59,450.09 1898.4,343.58 1934.18,292.63" fill="none" id="request-Is_Fulfilled_By" style="stroke:#181818;stroke-width:1;"/><text fill="#000000" font-family="sans-serif" font-size="11" lengthAdjust="spacing" textLength="6.9985" x="1853.26" y="395.8304">1</text></g><!--link Is_Fulfilled_By to fulfill--><g class="link" data-entity-1="ent0099" data-entity-2="ent0073" data-link-type="association" data-source-line="143" id="lnk124"><path d="M1986.14,241.73 C2016.75,218.44 2065.25,181.11 2106.24,147.62 C2113.42,141.75 2121.15,135.21 2128.05,129.27" fill="none" id="Is_Fulfilled_By-fulfill" style="stroke:#181818;stroke-width:1;"/><text fill="#000000" font-family="sans-serif" font-size="11" lengthAdjust="spacing" textLength="8.2285" x="2073.34" y="144.8304">N</text></g><!--link inventory to Supplies_Blood--><g class="link" data-entity-1="ent0033" data-entity-2="ent0100" data-link-type="association" data-source-line="145" id="lnk125"><path d="M941.29,873.36 C1047.65,872.7 1325.54,870.97 1462.98,870.11" fill="none" id="inventory-Supplies_Blood" style="stroke:#181818;stroke-width:1;"/><text fill="#000000" font-family="sans-serif" font-size="11" lengthAdjust="spacing" textLength="6.9985" x="1179.81" y="867.8304">1</text></g><!--link Supplies_Blood to fulfill--><g class="link" data-entity-1="ent0100" data-entity-2="ent0073" data-link-type="association" data-source-line="146" id="lnk126"><path d="M1622.07,868.3 C1649.96,867.93 1681.62,867.62 1710.48,867.62 C1710.48,867.62 1710.48,867.62 2078.34,867.62 C2154.98,867.62 2151.03,244.57 2149.64,128.96" fill="none" id="Supplies_Blood-fulfill" style="stroke:#181818;stroke-width:1;"/><text fill="#000000" font-family="sans-serif" font-size="11" lengthAdjust="spacing" textLength="8.2285" x="1852.26" y="864.8304">N</text></g><?plantuml-src xLLDSziW4Btlh-3KdfHnqaxFSPqqzKppCLPwrc1hRJ71G04byNJwtml8bW3PXruxrWK4-tRViW_ssbYgxQf10Hz9KHJaPZwzMqplIJcR_fW_t94FPFPu_xIuBSlvumCfRsUBs-VIMmB7jILM4iqsZIKrqxYoJ0emBqmegkcM25cZGKKk9z6YfkBbiBYY7CcMlhkVoOIyiTes-MA3tZq02iliZYovb7MrqR9Lv3SGzx4w3649_lI6PcSiRglMe4uD_KgOgBTkGT0jXecM72CFjHGomwvxMzxFQhaCey7tpcqZHRUpt5GEDpXaujNDfDvbX0Ip9ipmFSwWaKOnItbgFJ1Wgp3QdS8eSCAV-eAa-DwyfXQZ-0DEuwyMZKrXYjeEnUWczJFGR_KcShDk-PfnVYfNLvmuMQgKPC9ktM-Aw6bQja_SATQsWR167Z8q3LFafq5JFKdTdLY-EvESEtsQwgiNq163gL9QlZeN2-H83Hun-KxtyEhP9N_4eBHozO9rDJMd6PpQNdIdVchxnXSJJzClqUKsJGvn584o4_8xb3Stc9lgMrSqn-BhxbYKLYdEKXhnHIikYxWE4DV4xuKhzK-8moKOnqah2bc1YuUYlm1ZR5vi65NVu_SA1eWV7GzFXG2PBlQXNQ8Zu20GYBJY0VtRC0R5me54HMcIEIvM52JoyhZzBGVedZaFI3G6gUBIK0CcrnsCXEYHqUq6wD-rG38H9MGQJOWUtYKFowGAkNIJyWtlRc2SQ1WoIIV0QnHrQ8rmFRJ9SzixjxrpspktlNFRExUz_xtjNLvSJQw-N7nQegMV_m80?></g></svg>